<svg width="80" height="80" viewBox="0 0 80 80" fill="none" xmlns="http://www.w3.org/2000/svg">
<rect width="80" height="80" rx="13" fill="#161616"/>
<path d="M26.8625 23.472C30.4038 22.448 33.9452 21.936 37.4865 21.936C42.4358 21.936 46.1052 22.832 48.4945 24.624C50.9265 26.416 52.1425 29.2533 52.1425 33.136C52.1425 35.056 51.7158 36.72 50.8625 38.128C50.0518 39.536 48.7718 40.7307 47.0225 41.712V42.096C51.7158 43.5467 54.0625 46.4693 54.0625 50.864C54.0625 53.3813 53.5718 55.4507 52.5905 57.072C51.6092 58.6933 49.9238 59.9307 47.5345 60.784C45.1452 61.5947 41.8812 62 37.7425 62H26.8625V23.472ZM43.8225 39.92C45.7852 38.1707 46.7665 35.9307 46.7665 33.2C46.7665 30.8107 46.0198 29.1467 44.5265 28.208C43.0758 27.2693 40.7078 26.8 37.4225 26.8C35.6732 26.8 33.9452 26.9707 32.2385 27.312V39.92H43.8225ZM36.9745 57.136C40.0465 57.136 42.4145 56.944 44.0785 56.56C45.7425 56.176 46.9158 55.5573 47.5985 54.704C48.3238 53.808 48.6865 52.592 48.6865 51.056C48.6865 46.832 46.0625 44.72 40.8145 44.72H32.2385V57.136H36.9745Z" fill="white"/>
</svg>
